PathFileType  4	(X/Y/Z) C:\Users\antoi\Documents\MyRepositories\mobilecap\ResultsAnalysis
DataRate	CameraRate	NumFrames	NumMarkers	Units	OrigDataRate	OrigDataStartFrame	OrigNumFrames
100.0	100.0	4	51	mm	100.0	146	291
Frame#	Time	r_knee			r_shank_antsup			r_ankle			r_calc			r_5meta			r_toe			L_knee			L_shank_antsup			L_ankle			L_calc			L_5meta			L_toe			r_sh2			r_sh3			r_sh4			L_sh2			L_sh3			r_thigh1			r_thigh2			r_thigh3			r_thigh4			r_thigh5			L_thigh1			L_thigh2			L_thigh3			L_thigh4			r.ASIS			r.PSIS			L.ASIS			L.PSIS			C7			R_Shoulder			L_Shoulder			R_Sternum			L_Sternum			R_humerus			R_elbow_med			R_elbow_lat			R_forearm			R_wrist_radius			R_wrist_ulna			L_humerus			L_elbow_med			L_elbow_lat			L_forearm			L_wrist_radius			L_wrist_ulna			R_HJC			L_HJC			R_HJC_reg			L_HJC_reg			
		X1	Y1	Z1	X2	Y2	Z2	X3	Y3	Z3	X4	Y4	Z4	X5	Y5	Z5	X6	Y6	Z6	X7	Y7	Z7	X8	Y8	Z8	X9	Y9	Z9	X10	Y10	Z10	X11	Y11	Z11	X12	Y12	Z12	X13	Y13	Z13	X14	Y14	Z14	X15	Y15	Z15	X16	Y16	Z16	X17	Y17	Z17	X18	Y18	Z18	X19	Y19	Z19	X20	Y20	Z20	X21	Y21	Z21	X22	Y22	Z22	X23	Y23	Z23	X24	Y24	Z24	X25	Y25	Z25	X26	Y26	Z26	X27	Y27	Z27	X28	Y28	Z28	X29	Y29	Z29	X30	Y30	Z30	X31	Y31	Z31	X32	Y32	Z32	X33	Y33	Z33	X34	Y34	Z34	X35	Y35	Z35	X36	Y36	Z36	X37	Y37	Z37	X38	Y38	Z38	X39	Y39	Z39	X40	Y40	Z40	X41	Y41	Z41	X42	Y42	Z42	X43	Y43	Z43	X44	Y44	Z44	X45	Y45	Z45	X46	Y46	Z46	X47	Y47	Z47	X48	Y48	Z48	X49	Y49	Z49	X50	Y50	Z50	X51	Y51	Z51	

146	1.45000000	-50.96542	416.87234	-407.23352	-13.75184	346.47862	-408.81960	-235.62887	101.89189	-412.66578	-305.01474	83.70599	-456.29544	-147.66811	41.74502	-390.02833	-102.82520	52.98361	-444.15193	-38.66527	426.73545	-797.71095	-10.36094	332.91139	-790.47196	-200.73030	100.99416	-818.11973	-272.21801	67.33566	-776.20150	-114.50310	43.48013	-848.62825	-61.06673	54.45302	-796.53638	-80.98424	254.67759	-402.56015	-68.37865	392.80684	-377.56992	-144.67381	301.09011	-375.18289	-72.98412	384.17673	-830.80357	-130.41659	275.98908	-847.22871	-234.28750	572.61598	-382.74615	-133.33320	522.42313	-386.40517	-146.01769	453.50663	-393.01328	-287.99222	478.83182	-411.39547	-182.99598	426.90712	-420.44422	-251.35771	602.50717	-798.87920	-130.47734	536.48689	-796.91192	-310.51222	506.65086	-790.99293	-186.79472	439.00545	-774.61152	-266.73971	674.53230	-477.02320	-459.39902	746.21867	-550.27757	-267.60138	681.84598	-691.56851	-461.05687	744.57406	-632.66580	-169.49605	1116.10663	-535.94188	-123.25145	1052.28753	-411.59762	-133.27760	1091.31100	-664.42983	-80.00349	999.94804	-525.48491	-79.80043	1006.87735	-561.26537	-87.15240	963.45515	-351.43269	-111.21651	754.70890	-280.78691	-69.01308	793.94140	-237.30531	23.74098	766.90559	-259.89917	132.38463	679.28839	-287.00324	127.06275	665.08656	-251.85165	-111.39538	1054.61503	-765.51988	-104.91856	878.47812	-906.01151	-80.25817	942.34047	-928.88878	28.08129	911.18979	-930.40558	137.77815	848.30197	-927.85952	129.09717	841.59236	-966.50299	-363.06829	605.30719	-483.95363	-359.68662	611.86114	-691.33089	-347.57889	630.53726	-503.55642	-350.43394	627.70961	-645.17886	
147	1.46000000	-47.55370	416.28825	-406.38896	-10.71927	345.61397	-408.60533	-234.74494	102.70597	-411.92603	-304.30856	85.51719	-455.63948	-147.39563	41.69484	-389.82875	-102.49700	52.86846	-443.96640	-36.38524	424.59135	-798.84141	-9.09336	330.93589	-791.51439	-201.01629	100.39509	-817.97520	-272.37059	66.37799	-776.02071	-114.71577	43.36343	-848.55103	-61.26652	54.48124	-796.54654	-78.44531	254.42510	-402.05633	-65.51336	391.25398	-377.97900	-141.07320	300.08717	-374.51196	-72.04223	382.84472	-830.06693	-130.45478	275.43501	-847.02216	-233.91644	569.92413	-384.34668	-131.77746	521.70907	-387.00983	-143.49815	452.74125	-392.07431	-286.12286	474.77870	-409.97095	-180.07759	425.02956	-419.13135	-248.74667	597.49821	-800.05956	-128.12204	531.59706	-797.58959	-308.21034	501.69013	-792.83430	-184.69666	434.17559	-774.96052	-264.63593	666.11306	-478.62565	-456.60947	741.29739	-550.51602	-266.27577	672.92292	-692.71426	-457.52042	739.65121	-633.26179	-159.30191	1104.28705	-536.57323	-114.03895	1040.26397	-412.47296	-122.80842	1078.99844	-664.78594	-71.91522	986.50336	-526.25851	-71.54849	993.74855	-561.26937	-78.09595	949.72133	-353.01595	-106.72024	741.91678	-282.60987	-62.45047	779.41448	-239.82789	29.10830	748.96397	-262.56573	134.46139	657.43321	-289.17255	128.94901	643.85482	-253.79292	-99.69124	1039.94690	-764.76639	-98.98930	863.09527	-905.17090	-70.54609	925.55744	-926.86059	35.73771	888.64191	-929.44046	141.62082	820.13174	-929.37405	132.49634	814.82494	-967.97339	-362.28146	598.67703	-484.68222	-359.67504	604.84871	-692.08113	-347.27949	623.25335	-505.84526	-348.83353	620.44225	-647.18279	
148	1.47000000	-44.66613	417.00389	-405.75708	-7.92074	345.86661	-408.40678	-233.61151	103.91230	-410.82478	-303.35873	87.95636	-454.54008	-146.99793	41.68537	-389.42411	-102.07059	52.71992	-443.65825	-34.46561	423.39245	-799.47961	-8.32182	329.33176	-792.03697	-201.21583	100.00648	-817.55390	-272.48297	65.81271	-775.53647	-114.92551	43.40227	-848.39005	-61.45277	54.50238	-796.39460	-76.22825	255.30803	-401.57605	-62.03414	392.07170	-377.14955	-138.50245	301.09863	-373.90540	-71.45456	381.77910	-830.34991	-130.88576	274.99592	-846.48803	-233.46265	568.81459	-385.88702	-130.84823	522.38948	-387.85058	-141.00790	453.00005	-391.15660	-284.26160	471.91215	-407.69745	-177.46812	424.22057	-417.37992	-246.86002	594.46567	-800.74512	-126.22713	529.00902	-797.58384	-306.45302	498.63236	-794.32796	-182.79059	431.64459	-775.46462	-262.50244	659.10213	-481.11705	-453.87836	737.16888	-550.87387	-265.29660	664.45605	-694.61166	-454.33710	735.55763	-633.55213	-149.04984	1093.27057	-536.90943	-104.45615	1028.24326	-413.25000	-112.55065	1067.48593	-664.94053	-63.53756	974.58419	-526.47077	-63.35183	981.41212	-561.03446	-69.30097	936.35780	-354.05034	-103.44299	729.65082	-282.50986	-57.12912	765.91937	-240.77036	32.99696	731.92626	-263.90436	135.18712	637.16684	-290.91661	129.53095	624.06910	-255.12767	-88.66235	1026.10657	-763.88619	-94.22349	848.54344	-904.27077	-62.12638	909.56037	-924.64149	41.79934	866.92609	-928.13092	143.60414	792.67506	-930.79368	134.00922	788.89706	-969.47716	-361.16808	593.25675	-485.44674	-360.23323	598.45014	-692.88596	-346.68020	616.71328	-508.72774	-347.45832	613.96770	-649.66472	
149	1.48000000	-42.22957	418.28814	-405.60835	-5.63554	346.57202	-408.21375	-232.41055	105.18401	-409.46052	-302.41432	90.41501	-453.23059	-146.54685	41.62669	-388.91329	-101.58786	52.67375	-443.27473	-32.81245	422.81250	-799.29111	-7.28733	328.12472	-792.24342	-201.23705	99.86050	-817.27067	-272.56882	65.71247	-775.27791	-115.02238	43.50281	-848.32242	-61.58497	54.47852	-796.24168	-74.58557	256.52595	-401.33334	-59.04954	393.84401	-375.95661	-137.23029	303.57391	-373.09027	-70.24834	380.73339	-831.28692	-130.43600	274.15819	-846.07975	-233.25581	569.43611	-385.99006	-129.52760	523.41999	-389.24330	-138.77869	453.84325	-390.49212	-282.46597	470.46888	-405.42462	-175.07470	423.93253	-416.06836	-246.10124	593.05096	-800.67025	-125.10485	528.38507	-797.05062	-305.31878	496.90647	-795.15201	-181.16481	430.76359	-776.36359	-260.36707	653.35528	-484.47660	-451.16001	733.69348	-551.44120	-264.46017	657.41784	-697.27525	-451.77459	732.10231	-633.81645	-138.73663	1082.99074	-536.84226	-94.59949	1016.30279	-413.77465	-102.19256	1056.66570	-665.03525	-55.06814	963.82085	-526.01937	-55.19978	969.94923	-560.88837	-60.94707	923.35921	-354.69237	-101.28041	718.08741	-281.21228	-53.09863	753.39132	-240.46414	35.38797	716.00206	-264.35452	134.65046	618.38006	-291.99361	128.61195	605.55265	-256.07354	-78.64127	1012.82061	-762.86026	-90.78731	835.02704	-903.17505	-55.23821	894.73870	-922.64714	46.04133	846.12032	-926.66542	143.28585	765.92561	-931.68623	133.40306	763.76273	-970.86242	-359.57959	588.71830	-486.77491	-360.88156	593.21217	-694.22747	-345.46954	611.42767	-511.83822	-346.51875	608.71306	-652.30595	
